<svg width="103" height="103" viewBox="0 0 103 103" fill="none" xmlns="http://www.w3.org/2000/svg">
<mask id="path-1-outside-1_1_416" maskUnits="userSpaceOnUse" x="7" y="6" width="84" height="85" fill="black">
<rect fill="white" x="7" y="6" width="84" height="85"/>
<path fill-rule="evenodd" clip-rule="evenodd" d="M80.4447 42.8141C80.8093 41.0924 81 39.3161 81 37.5C81 21.7599 66.6731 9 49 9C31.3269 9 17 21.7599 17 37.5C17 39.3161 17.1907 41.0924 17.5553 42.8141C17.6515 46.5784 15.5688 49.953 14.358 51.915L14.3578 51.9153C14.2271 52.1271 14.1066 52.3224 14 52.5C12.5 55 10.5 58.5 10 62.5C10 66 11.4 69.7 13 72.5C14.3407 74.8461 13.2006 78.5262 12.1094 80.8342L12.0678 80.9221C11.7073 81.6838 11.3413 82.4568 11.2866 83.2966C11.1647 85.1705 11.8117 87.5 15 87.5H25H36.5C42.0228 87.5 46.5 83.0229 46.5 77.5V76.0515C35.5269 74.8103 27 65.497 27 54.192V50.4359V40.2408V37.3105C27 36.2765 27.4943 35.3035 28.3555 34.7312C29.5684 33.9254 31.3388 32.8229 32.5632 32.3813C38.6539 30.185 44.7449 25.1673 46.9094 23.2745C47.3676 22.8739 48.0675 22.9155 48.4666 23.375L52.703 28.2521C52.7384 28.2929 52.7727 28.3306 52.8106 28.369C53.2538 28.8173 56.3478 31.8663 60.2683 33.6791C62.7626 34.8325 65.5432 35.3239 67.6489 35.5295C69.4714 35.7074 71 37.1905 71 39.0217V40.2408V49.3415V54.192C71 65.497 62.4731 74.8103 51.5 76.0515V77.5C51.5 83.0229 55.9772 87.5 61.5 87.5H73H83C86.1883 87.5 86.8353 85.1705 86.7134 83.2966C86.6587 82.4568 86.2928 81.6838 85.9322 80.9222L85.9322 80.9221L85.8906 80.8342C84.7994 78.5262 83.6593 74.8461 85 72.5C86.6 69.7 88 66 88 62.5C87.5 58.5 85.5 55 84 52.5C83.8934 52.3224 83.7728 52.127 83.6421 51.9151L83.642 51.915C82.4312 49.953 80.3485 46.5784 80.4447 42.8141Z"/>
</mask>
<path fill-rule="evenodd" clip-rule="evenodd" d="M80.4447 42.8141C80.8093 41.0924 81 39.3161 81 37.5C81 21.7599 66.6731 9 49 9C31.3269 9 17 21.7599 17 37.5C17 39.3161 17.1907 41.0924 17.5553 42.8141C17.6515 46.5784 15.5688 49.953 14.358 51.915L14.3578 51.9153C14.2271 52.1271 14.1066 52.3224 14 52.5C12.5 55 10.5 58.5 10 62.5C10 66 11.4 69.7 13 72.5C14.3407 74.8461 13.2006 78.5262 12.1094 80.8342L12.0678 80.9221C11.7073 81.6838 11.3413 82.4568 11.2866 83.2966C11.1647 85.1705 11.8117 87.5 15 87.5H25H36.5C42.0228 87.5 46.5 83.0229 46.5 77.5V76.0515C35.5269 74.8103 27 65.497 27 54.192V50.4359V40.2408V37.3105C27 36.2765 27.4943 35.3035 28.3555 34.7312C29.5684 33.9254 31.3388 32.8229 32.5632 32.3813C38.6539 30.185 44.7449 25.1673 46.9094 23.2745C47.3676 22.8739 48.0675 22.9155 48.4666 23.375L52.703 28.2521C52.7384 28.2929 52.7727 28.3306 52.8106 28.369C53.2538 28.8173 56.3478 31.8663 60.2683 33.6791C62.7626 34.8325 65.5432 35.3239 67.6489 35.5295C69.4714 35.7074 71 37.1905 71 39.0217V40.2408V49.3415V54.192C71 65.497 62.4731 74.8103 51.5 76.0515V77.5C51.5 83.0229 55.9772 87.5 61.5 87.5H73H83C86.1883 87.5 86.8353 85.1705 86.7134 83.2966C86.6587 82.4568 86.2928 81.6838 85.9322 80.9222L85.9322 80.9221L85.8906 80.8342C84.7994 78.5262 83.6593 74.8461 85 72.5C86.6 69.7 88 66 88 62.5C87.5 58.5 85.5 55 84 52.5C83.8934 52.3224 83.7728 52.127 83.6421 51.9151L83.642 51.915C82.4312 49.953 80.3485 46.5784 80.4447 42.8141Z" fill="#8667FF"/>
<path d="M80.4447 42.8141L77.7055 42.2341L77.6522 42.4856L77.6456 42.7426L80.4447 42.8141ZM17.5553 42.8141L20.3544 42.7426L20.3478 42.4856L20.2946 42.2341L17.5553 42.8141ZM14.358 51.915L16.7271 53.4075L16.734 53.3965L16.7408 53.3855L14.358 51.915ZM14.3578 51.9153L11.9888 50.4228L11.9819 50.4337L11.9751 50.4447L14.3578 51.9153ZM14 52.5L16.401 53.9406L16.401 53.9406L14 52.5ZM10 62.5L7.22162 62.1527L7.2 62.3257V62.5H10ZM13 72.5L15.4311 71.1108H15.4311L13 72.5ZM12.1094 80.8342L14.6404 82.0319L14.6408 82.031L12.1094 80.8342ZM12.0678 80.9221L14.5986 82.1202L14.5988 82.1198L12.0678 80.9221ZM11.2866 83.2966L8.49253 83.1149H8.49253L11.2866 83.2966ZM46.5 76.0515H49.3V73.5504L46.8147 73.2693L46.5 76.0515ZM28.3555 34.7312L26.806 32.3991H26.806L28.3555 34.7312ZM32.5632 32.3813L31.6134 29.7473L31.6133 29.7474L32.5632 32.3813ZM46.9094 23.2745L45.0663 21.1667V21.1667L46.9094 23.2745ZM48.4666 23.375L46.3527 25.2112L46.3527 25.2112L48.4666 23.375ZM52.703 28.2521L54.8169 26.416L54.8168 26.416L52.703 28.2521ZM52.8106 28.369L50.8193 30.3374L50.8193 30.3374L52.8106 28.369ZM60.2683 33.6791L61.4435 31.1377L60.2683 33.6791ZM67.6489 35.5295L67.921 32.7427L67.6489 35.5295ZM51.5 76.0515L51.1853 73.2693L48.7 73.5504V76.0515H51.5ZM86.7134 83.2966L89.5075 83.1149V83.1148L86.7134 83.2966ZM85.9322 80.9222L83.2759 81.8076L83.3292 81.9677L83.4015 82.1203L85.9322 80.9222ZM85.9322 80.9221L88.5885 80.0367L88.5352 79.8767L88.463 79.7243L85.9322 80.9221ZM85.8906 80.8342L83.3592 82.031L83.3597 82.032L85.8906 80.8342ZM85 72.5L82.5689 71.1108L85 72.5ZM88 62.5H90.8V62.3257L90.7784 62.1527L88 62.5ZM84 52.5L81.599 53.9405L81.599 53.9406L84 52.5ZM83.6421 51.9151L81.211 53.3043L81.2345 53.3455L81.2594 53.3858L83.6421 51.9151ZM83.642 51.915L86.0731 50.5258L86.0496 50.4847L86.0247 50.4444L83.642 51.915ZM78.2 37.5C78.2 39.1193 78.03 40.7013 77.7055 42.2341L83.184 43.3942C83.5885 41.4836 83.8 39.5128 83.8 37.5H78.2ZM49 11.8C65.4405 11.8 78.2 23.6024 78.2 37.5H83.8C83.8 19.9174 67.9058 6.2 49 6.2V11.8ZM19.8 37.5C19.8 23.6024 32.5595 11.8 49 11.8V6.2C30.0942 6.2 14.2 19.9174 14.2 37.5H19.8ZM20.2946 42.2341C19.97 40.7013 19.8 39.1193 19.8 37.5H14.2C14.2 39.5128 14.4115 41.4836 14.816 43.3942L20.2946 42.2341ZM16.7408 53.3855C17.8943 51.5164 20.4749 47.4589 20.3544 42.7426L14.7562 42.8857C14.8281 45.6979 13.2434 48.3897 11.9752 50.4444L16.7408 53.3855ZM16.7269 53.4078L16.7271 53.4075L11.9889 50.4225L11.9888 50.4228L16.7269 53.4078ZM16.401 53.9406C16.4967 53.781 16.6074 53.6015 16.7406 53.3858L11.9751 50.4447C11.8468 50.6526 11.7164 50.8638 11.599 51.0594L16.401 53.9406ZM12.7784 62.8473C13.1977 59.4926 14.899 56.444 16.401 53.9406L11.599 51.0594C10.101 53.556 7.80228 57.5074 7.22162 62.1527L12.7784 62.8473ZM15.4311 71.1108C13.9653 68.5457 12.8 65.3341 12.8 62.5H7.2C7.2 66.6659 8.83468 70.8543 10.5689 73.8892L15.4311 71.1108ZM14.6408 82.031C15.2572 80.7272 15.9181 78.9786 16.2275 77.1481C16.5262 75.3807 16.57 73.1039 15.4311 71.1108L10.5689 73.8892C10.7707 74.2422 10.9147 74.9786 10.7058 76.2148C10.5075 77.3878 10.0529 78.6332 9.57808 79.6375L14.6408 82.031ZM14.5988 82.1198L14.6404 82.0319L9.57851 79.6365L9.53692 79.7244L14.5988 82.1198ZM14.0807 83.4784C14.0947 83.2629 14.1941 82.9746 14.5986 82.1202L9.53714 79.724C9.22044 80.3929 8.58778 81.6507 8.49253 83.1149L14.0807 83.4784ZM15 84.7C14.5434 84.7 14.3408 84.6174 14.2864 84.5908C14.2459 84.571 14.2417 84.5628 14.2309 84.5466C14.208 84.5123 14.155 84.4132 14.116 84.2116C14.0769 84.0097 14.0625 83.7583 14.0807 83.4784L8.49253 83.1149C8.41152 84.36 8.5483 86.12 9.57309 87.6554C10.7211 89.3754 12.6313 90.3 15 90.3V84.7ZM25 84.7H15V90.3H25V84.7ZM36.5 84.7H25V90.3H36.5V84.7ZM43.7 77.5C43.7 81.4765 40.4764 84.7 36.5 84.7V90.3C43.5692 90.3 49.3 84.5692 49.3 77.5H43.7ZM43.7 76.0515V77.5H49.3V76.0515H43.7ZM46.8147 73.2693C37.2411 72.1864 29.8 64.0562 29.8 54.192H24.2C24.2 66.9377 33.8126 77.4343 46.1853 78.8338L46.8147 73.2693ZM29.8 54.192V50.4359H24.2V54.192H29.8ZM29.8 50.4359V40.2408H24.2V50.4359H29.8ZM29.8 40.2408V37.3105H24.2V40.2408H29.8ZM29.8 37.3105C29.8 37.1625 29.867 37.0887 29.9051 37.0634L26.806 32.3991C25.1216 33.5182 24.2 35.3904 24.2 37.3105H29.8ZM29.9051 37.0634C31.1534 36.2339 32.6547 35.3248 33.5131 35.0153L31.6133 29.7474C30.0229 30.3209 27.9833 31.6168 26.806 32.3991L29.9051 37.0634ZM33.513 35.0153C40.1405 32.6254 46.5724 27.2888 48.7526 25.3823L45.0663 21.1667C42.9173 23.0458 37.1672 27.7446 31.6134 29.7473L33.513 35.0153ZM48.7526 25.3823C48.0665 25.9823 46.9895 25.9443 46.3527 25.2112L50.5805 21.5389C49.1454 19.8867 46.6688 19.7654 45.0663 21.1667L48.7526 25.3823ZM46.3527 25.2112L50.5891 30.0883L54.8168 26.416L50.5805 21.5389L46.3527 25.2112ZM50.5891 30.0883C50.6521 30.1608 50.7281 30.2451 50.8193 30.3374L54.802 26.4006C54.809 26.4077 54.8146 26.4137 54.8181 26.4175C54.8213 26.421 54.8214 26.4212 54.8169 26.416L50.5891 30.0883ZM50.8193 30.3374C51.3193 30.8432 54.7013 34.1898 59.0931 36.2206L61.4435 31.1377C57.9943 29.5428 55.1883 26.7915 54.8019 26.4006L50.8193 30.3374ZM59.0931 36.2206C61.9904 37.5603 65.1209 38.096 67.3768 38.3162L67.921 32.7427C65.9654 32.5518 63.5348 32.1047 61.4435 31.1377L59.0931 36.2206ZM67.3768 38.3162C67.6212 38.3401 67.851 38.4553 68.0089 38.6162C68.1586 38.7689 68.2 38.9118 68.2 39.0217H73.8C73.8 35.5574 70.9781 33.0412 67.921 32.7427L67.3768 38.3162ZM68.2 39.0217V40.2408H73.8V39.0217H68.2ZM68.2 40.2408V49.3415H73.8V40.2408H68.2ZM68.2 49.3415V54.192H73.8V49.3415H68.2ZM68.2 54.192C68.2 64.0562 60.7589 72.1864 51.1853 73.2693L51.8147 78.8338C64.1874 77.4343 73.8 66.9377 73.8 54.192H68.2ZM54.3 77.5V76.0515H48.7V77.5H54.3ZM61.5 84.7C57.5236 84.7 54.3 81.4765 54.3 77.5H48.7C48.7 84.5692 54.4308 90.3 61.5 90.3V84.7ZM73 84.7H61.5V90.3H73V84.7ZM83 84.7H73V90.3H83V84.7ZM83.9193 83.4784C83.9375 83.7583 83.9231 84.0097 83.884 84.2116C83.845 84.4132 83.792 84.5123 83.7691 84.5466C83.7583 84.5628 83.7541 84.571 83.7136 84.5908C83.6592 84.6174 83.4566 84.7 83 84.7V90.3C85.3687 90.3 87.2789 89.3754 88.4269 87.6554C89.4517 86.12 89.5885 84.36 89.5075 83.1149L83.9193 83.4784ZM83.4015 82.1203C83.8059 82.9746 83.9053 83.2629 83.9193 83.4784L89.5075 83.1148C89.4122 81.6508 88.7796 80.393 88.4629 79.7241L83.4015 82.1203ZM83.2758 81.8075L83.2759 81.8076L88.5885 80.0367L88.5885 80.0367L83.2758 81.8075ZM83.3597 82.032L83.4013 82.1199L88.463 79.7243L88.4214 79.6364L83.3597 82.032ZM82.5689 71.1108C81.43 73.1039 81.4738 75.3807 81.7725 77.1481C82.0819 78.9786 82.7428 80.7272 83.3592 82.031L88.4219 79.6374C87.9471 78.6332 87.4925 77.3878 87.2942 76.2148C87.0853 74.9786 87.2293 74.2422 87.4311 73.8892L82.5689 71.1108ZM85.2 62.5C85.2 65.3341 84.0347 68.5457 82.5689 71.1108L87.4311 73.8892C89.1653 70.8543 90.8 66.6659 90.8 62.5H85.2ZM81.599 53.9406C83.101 56.444 84.8023 59.4926 85.2216 62.8473L90.7784 62.1527C90.1977 57.5074 87.899 53.556 86.401 51.0594L81.599 53.9406ZM81.2594 53.3858C81.3926 53.6015 81.5033 53.781 81.599 53.9405L86.401 51.0595C86.2836 50.8638 86.1531 50.6525 86.0248 50.4445L81.2594 53.3858ZM81.2109 53.3042L81.211 53.3043L86.0732 50.5259L86.0731 50.5258L81.2109 53.3042ZM77.6456 42.7426C77.5251 47.4589 80.1057 51.5164 81.2592 53.3855L86.0247 50.4444C84.7566 48.3897 83.1719 45.6979 83.2438 42.8857L77.6456 42.7426Z" fill="#1300EE" mask="url(#path-1-outside-1_1_416)"/>
<path d="M48 70L34 73.5L51.5 89.5L66 73.5L48 70Z" fill="#FFD8EE"/>
<path d="M25 87.0357V96H73V87.0357C73 79.1273 66.8883 72.5634 59 72L49 85.0435L39 72C31.1117 72.5634 25 79.1273 25 87.0357Z" fill="#190062"/>
<path d="M67.7143 96C67.7143 83.5 65.5 80 58 74L59.7143 71L64.2857 72.0638L71.7143 82.1702L74 96H67.7143Z" fill="#120047"/>
<path d="M25 96V90.8661C25 81.951 30.6043 73.9985 39 71V71L49 87L59 71V71C67.3957 73.9985 73 81.951 73 90.8661V94.5" stroke="#1300EE" stroke-width="2.8" stroke-linecap="round" stroke-linejoin="round"/>
<rect x="20.6" y="49.6" width="10.8" height="9.8" rx="4.9" fill="#FFD8EE" stroke="#1300EE" stroke-width="2.8"/>
<rect x="66.6" y="49.6" width="10.8" height="9.8" rx="4.9" fill="#FFD8EE" stroke="#1300EE" stroke-width="2.8"/>
<rect x="26.6" y="18.6" width="43.8" height="56.8" rx="21.9" fill="#FFD8EE" stroke="#1300EE" stroke-width="2.8"/>
<path d="M56.0886 62H42.9438C42.4176 62 41.9741 62.4105 42.048 62.9315C42.3463 65.0325 44.1182 68 49.688 68C55.3106 68 56.8592 64.976 56.9906 62.872C57.0218 62.3723 56.5893 62 56.0886 62Z" fill="white"/>
<path d="M56.0886 62H42.9438C42.4176 62 41.9741 62.4105 42.048 62.9315C42.3463 65.0325 44.1182 68 49.688 68C55.3106 68 56.8592 64.976 56.9906 62.872C57.0218 62.3723 56.5893 62 56.0886 62Z" stroke="#1300EE" stroke-width="2.8"/>
<circle cx="39.5" cy="50.5" r="5.9" fill="white" stroke="#1300EE" stroke-width="2.8"/>
<circle cx="39.4" cy="50.4" r="1.4" fill="#1300EE"/>
<circle cx="58.5" cy="50.5" r="5.9" fill="white" stroke="#1300EE" stroke-width="2.8"/>
<circle cx="58.4" cy="50.4" r="1.4" fill="#1300EE"/>
<path d="M36 40.2752C36.6667 39.6085 38.7 38.4752 41.5 39.2752" stroke="#1300EE" stroke-width="2.8" stroke-linecap="round"/>
<path d="M61.5 40.2752C60.8333 39.6085 58.8 38.4752 56 39.2752" stroke="#1300EE" stroke-width="2.8" stroke-linecap="round"/>
<g clip-path="url(#clip0_1_416)">
<mask id="path-17-outside-2_1_416" maskUnits="userSpaceOnUse" x="7" y="6" width="84" height="85" fill="black">
<rect fill="white" x="7" y="6" width="84" height="85"/>
<path fill-rule="evenodd" clip-rule="evenodd" d="M81 37.5C81 39.3161 80.8093 41.0924 80.4447 42.8141C80.3485 46.5784 82.4312 49.953 83.642 51.915L83.6421 51.9151C83.7728 52.127 83.8934 52.3224 84 52.5C85.5 55 87.5 58.5 88 62.5C88 66 86.6 69.7 85 72.5C83.6593 74.8461 84.7994 78.5262 85.8906 80.8342L85.9322 80.9221L85.9322 80.9222C86.2928 81.6838 86.6587 82.4568 86.7134 83.2966C86.8353 85.1705 86.1883 87.5 83 87.5H73H63H61.5H36.5H35H25H15C11.8117 87.5 11.1647 85.1705 11.2866 83.2966C11.3413 82.4568 11.7073 81.6838 12.0678 80.9221L12.1094 80.8342C13.2006 78.5262 14.3407 74.8461 13 72.5C11.4 69.7 10 66 10 62.5C10.5 58.5 12.5 55 14 52.5C14.1066 52.3224 14.2271 52.1271 14.3578 51.9153L14.358 51.915C15.5688 49.953 17.6515 46.5784 17.5553 42.8141C17.1907 41.0924 17 39.3161 17 37.5C17 21.7599 31.3269 9 49 9C66.6731 9 81 21.7599 81 37.5ZM31.0918 32.3813C29.7917 32.824 27.9104 33.9309 26.6256 34.7373C25.7239 35.3034 25.1998 36.3009 25.1998 37.3656V40.2407V50.4359V52.8919C25.1998 65.7602 35.6316 76.1919 48.4998 76.1919C61.368 76.1919 71.7998 65.7602 71.7998 52.8919V49.3414V40.2407V39.0138C71.7998 37.1856 70.2753 35.7046 68.4539 35.5476C66.2015 35.3534 63.1567 34.8678 60.434 33.6791C56.2775 31.8644 52.9982 28.811 52.5342 28.3676C52.495 28.3301 52.4595 28.2933 52.4228 28.2534L47.8735 23.3083C47.4777 22.878 46.8088 22.8412 46.3586 23.2142C44.1326 25.0585 37.612 30.1612 31.0918 32.3813Z"/>
</mask>
<path fill-rule="evenodd" clip-rule="evenodd" d="M81 37.5C81 39.3161 80.8093 41.0924 80.4447 42.8141C80.3485 46.5784 82.4312 49.953 83.642 51.915L83.6421 51.9151C83.7728 52.127 83.8934 52.3224 84 52.5C85.5 55 87.5 58.5 88 62.5C88 66 86.6 69.7 85 72.5C83.6593 74.8461 84.7994 78.5262 85.8906 80.8342L85.9322 80.9221L85.9322 80.9222C86.2928 81.6838 86.6587 82.4568 86.7134 83.2966C86.8353 85.1705 86.1883 87.5 83 87.5H73H63H61.5H36.5H35H25H15C11.8117 87.5 11.1647 85.1705 11.2866 83.2966C11.3413 82.4568 11.7073 81.6838 12.0678 80.9221L12.1094 80.8342C13.2006 78.5262 14.3407 74.8461 13 72.5C11.4 69.7 10 66 10 62.5C10.5 58.5 12.5 55 14 52.5C14.1066 52.3224 14.2271 52.1271 14.3578 51.9153L14.358 51.915C15.5688 49.953 17.6515 46.5784 17.5553 42.8141C17.1907 41.0924 17 39.3161 17 37.5C17 21.7599 31.3269 9 49 9C66.6731 9 81 21.7599 81 37.5ZM31.0918 32.3813C29.7917 32.824 27.9104 33.9309 26.6256 34.7373C25.7239 35.3034 25.1998 36.3009 25.1998 37.3656V40.2407V50.4359V52.8919C25.1998 65.7602 35.6316 76.1919 48.4998 76.1919C61.368 76.1919 71.7998 65.7602 71.7998 52.8919V49.3414V40.2407V39.0138C71.7998 37.1856 70.2753 35.7046 68.4539 35.5476C66.2015 35.3534 63.1567 34.8678 60.434 33.6791C56.2775 31.8644 52.9982 28.811 52.5342 28.3676C52.495 28.3301 52.4595 28.2933 52.4228 28.2534L47.8735 23.3083C47.4777 22.878 46.8088 22.8412 46.3586 23.2142C44.1326 25.0585 37.612 30.1612 31.0918 32.3813Z" fill="#8667FF"/>
<path d="M80.4447 42.8141L77.7055 42.2341L77.6522 42.4856L77.6456 42.7426L80.4447 42.8141ZM83.642 51.915L86.0731 50.5258L86.0496 50.4847L86.0247 50.4444L83.642 51.915ZM83.6421 51.9151L81.211 53.3043L81.2345 53.3455L81.2594 53.3858L83.6421 51.9151ZM84 52.5L81.599 53.9405L81.599 53.9406L84 52.5ZM88 62.5H90.8V62.3257L90.7784 62.1527L88 62.5ZM85 72.5L82.5689 71.1108L85 72.5ZM85.8906 80.8342L83.3592 82.031L83.3597 82.032L85.8906 80.8342ZM85.9322 80.9221L88.5885 80.0367L88.5352 79.8767L88.463 79.7243L85.9322 80.9221ZM85.9322 80.9222L83.2759 81.8076L83.3292 81.9677L83.4015 82.1203L85.9322 80.9222ZM86.7134 83.2966L89.5075 83.1149V83.1148L86.7134 83.2966ZM11.2866 83.2966L8.49253 83.1149H8.49253L11.2866 83.2966ZM12.0678 80.9221L14.5986 82.1202L14.5988 82.1198L12.0678 80.9221ZM12.1094 80.8342L14.6404 82.0319L14.6408 82.031L12.1094 80.8342ZM13 72.5L15.4311 71.1108H15.4311L13 72.5ZM10 62.5L7.22162 62.1527L7.2 62.3257V62.5H10ZM14 52.5L16.401 53.9406L16.401 53.9406L14 52.5ZM14.3578 51.9153L11.9888 50.4228L11.9819 50.4337L11.9751 50.4447L14.3578 51.9153ZM14.358 51.915L16.7271 53.4075L16.734 53.3965L16.7408 53.3855L14.358 51.915ZM17.5553 42.8141L20.3544 42.7426L20.3478 42.4856L20.2946 42.2341L17.5553 42.8141ZM26.6256 34.7373L25.1371 32.3658L25.1371 32.3658L26.6256 34.7373ZM31.0918 32.3813L30.1893 29.7307L30.1892 29.7307L31.0918 32.3813ZM68.4539 35.5476L68.2134 38.3372H68.2134L68.4539 35.5476ZM60.434 33.6791L61.5543 31.113H61.5543L60.434 33.6791ZM52.5342 28.3676L50.5998 30.392L50.5998 30.392L52.5342 28.3676ZM52.4228 28.2534L50.3621 30.1491L50.3621 30.1491L52.4228 28.2534ZM47.8735 23.3083L45.8129 25.204L45.8129 25.204L47.8735 23.3083ZM46.3586 23.2142L44.5722 21.0581L44.5722 21.0581L46.3586 23.2142ZM83.184 43.3942C83.5885 41.4836 83.8 39.5128 83.8 37.5H78.2C78.2 39.1193 78.03 40.7013 77.7055 42.2341L83.184 43.3942ZM86.0247 50.4444C84.7566 48.3897 83.1719 45.6979 83.2438 42.8857L77.6456 42.7426C77.5251 47.4589 80.1057 51.5164 81.2592 53.3855L86.0247 50.4444ZM86.0732 50.5259L86.0731 50.5258L81.2109 53.3042L81.211 53.3043L86.0732 50.5259ZM86.401 51.0595C86.2836 50.8638 86.1531 50.6525 86.0248 50.4445L81.2594 53.3858C81.3926 53.6015 81.5033 53.781 81.599 53.9405L86.401 51.0595ZM90.7784 62.1527C90.1977 57.5074 87.899 53.556 86.401 51.0594L81.599 53.9406C83.101 56.444 84.8023 59.4926 85.2216 62.8473L90.7784 62.1527ZM87.4311 73.8892C89.1653 70.8543 90.8 66.6659 90.8 62.5H85.2C85.2 65.3341 84.0347 68.5457 82.5689 71.1108L87.4311 73.8892ZM88.4219 79.6374C87.9471 78.6332 87.4925 77.3878 87.2942 76.2148C87.0853 74.9786 87.2293 74.2422 87.4311 73.8892L82.5689 71.1108C81.43 73.1039 81.4738 75.3807 81.7725 77.1481C82.0819 78.9786 82.7428 80.7272 83.3592 82.031L88.4219 79.6374ZM88.463 79.7243L88.4214 79.6364L83.3597 82.032L83.4013 82.1199L88.463 79.7243ZM88.5885 80.0367L88.5885 80.0367L83.2758 81.8075L83.2759 81.8076L88.5885 80.0367ZM89.5075 83.1148C89.4122 81.6508 88.7796 80.393 88.4629 79.7241L83.4015 82.1203C83.8059 82.9746 83.9053 83.2629 83.9193 83.4784L89.5075 83.1148ZM83 90.3C85.3687 90.3 87.2789 89.3754 88.4269 87.6554C89.4517 86.12 89.5885 84.36 89.5075 83.1149L83.9193 83.4784C83.9375 83.7583 83.9231 84.0097 83.884 84.2116C83.845 84.4132 83.792 84.5123 83.7691 84.5466C83.7583 84.5628 83.7541 84.571 83.7136 84.5908C83.6592 84.6174 83.4566 84.7 83 84.7V90.3ZM73 90.3H83V84.7H73V90.3ZM63 90.3H73V84.7H63V90.3ZM61.5 90.3H63V84.7H61.5V90.3ZM36.5 90.3H61.5V84.7H36.5V90.3ZM35 90.3H36.5V84.7H35V90.3ZM25 90.3H35V84.7H25V90.3ZM15 90.3H25V84.7H15V90.3ZM8.49253 83.1149C8.41152 84.36 8.5483 86.12 9.57309 87.6554C10.7211 89.3754 12.6313 90.3 15 90.3V84.7C14.5434 84.7 14.3408 84.6174 14.2864 84.5908C14.2459 84.571 14.2417 84.5628 14.2309 84.5466C14.208 84.5123 14.155 84.4132 14.116 84.2116C14.0769 84.0097 14.0625 83.7583 14.0807 83.4784L8.49253 83.1149ZM9.53714 79.724C9.22044 80.3929 8.58778 81.6507 8.49253 83.1149L14.0807 83.4784C14.0947 83.2629 14.1941 82.9746 14.5986 82.1202L9.53714 79.724ZM9.57851 79.6365L9.53692 79.7244L14.5988 82.1198L14.6404 82.0319L9.57851 79.6365ZM10.5689 73.8892C10.7707 74.2422 10.9147 74.9786 10.7058 76.2148C10.5075 77.3878 10.0529 78.6332 9.57808 79.6375L14.6408 82.031C15.2572 80.7272 15.9181 78.9786 16.2275 77.1481C16.5262 75.3807 16.57 73.1039 15.4311 71.1108L10.5689 73.8892ZM7.2 62.5C7.2 66.6659 8.83468 70.8543 10.5689 73.8892L15.4311 71.1108C13.9653 68.5457 12.8 65.3341 12.8 62.5H7.2ZM11.599 51.0594C10.101 53.556 7.80228 57.5074 7.22162 62.1527L12.7784 62.8473C13.1977 59.4926 14.899 56.444 16.401 53.9406L11.599 51.0594ZM11.9751 50.4447C11.8468 50.6526 11.7164 50.8638 11.599 51.0594L16.401 53.9406C16.4967 53.781 16.6074 53.6015 16.7406 53.3858L11.9751 50.4447ZM11.9889 50.4225L11.9888 50.4228L16.7269 53.4078L16.7271 53.4075L11.9889 50.4225ZM14.7562 42.8857C14.8281 45.6979 13.2434 48.3897 11.9752 50.4444L16.7408 53.3855C17.8943 51.5164 20.4749 47.4589 20.3544 42.7426L14.7562 42.8857ZM14.2 37.5C14.2 39.5128 14.4115 41.4836 14.816 43.3942L20.2946 42.2341C19.97 40.7013 19.8 39.1193 19.8 37.5H14.2ZM49 6.2C30.0942 6.2 14.2 19.9174 14.2 37.5H19.8C19.8 23.6024 32.5595 11.8 49 11.8V6.2ZM83.8 37.5C83.8 19.9174 67.9058 6.2 49 6.2V11.8C65.4405 11.8 78.2 23.6024 78.2 37.5H83.8ZM28.1142 37.1089C29.4318 36.2819 31.0494 35.3536 31.9943 35.0318L30.1892 29.7307C28.534 30.2944 26.389 31.58 25.1371 32.3658L28.1142 37.1089ZM27.9998 37.3656C27.9998 37.2138 28.0704 37.1364 28.1142 37.1089L25.1371 32.3658C23.3773 33.4703 22.3998 35.388 22.3998 37.3656H27.9998ZM27.9998 40.2407V37.3656H22.3998V40.2407H27.9998ZM27.9998 50.4359V40.2407H22.3998V50.4359H27.9998ZM27.9998 52.8919V50.4359H22.3998V52.8919H27.9998ZM48.4998 73.3919C37.178 73.3919 27.9998 64.2138 27.9998 52.8919H22.3998C22.3998 67.3066 34.0852 78.9919 48.4998 78.9919V73.3919ZM68.9998 52.8919C68.9998 64.2138 59.8216 73.3919 48.4998 73.3919V78.9919C62.9144 78.9919 74.5998 67.3066 74.5998 52.8919H68.9998ZM68.9998 49.3414V52.8919H74.5998V49.3414H68.9998ZM68.9998 40.2407V49.3414H74.5998V40.2407H68.9998ZM68.9998 39.0138V40.2407H74.5998V39.0138H68.9998ZM68.2134 38.3372C68.4449 38.3572 68.6633 38.4647 68.8146 38.6184C68.9582 38.7643 68.9998 38.9037 68.9998 39.0138H74.5998C74.5998 35.5576 71.7827 33.0242 68.6944 32.7579L68.2134 38.3372ZM59.3136 36.2452C62.4352 37.6081 65.8228 38.1312 68.2134 38.3372L68.6944 32.7579C66.5801 32.5757 63.8782 32.1276 61.5543 31.113L59.3136 36.2452ZM50.5998 30.392C51.1263 30.8951 54.6942 34.2284 59.3136 36.2452L61.5543 31.113C57.8608 29.5005 54.87 26.7268 54.4686 26.3432L50.5998 30.392ZM50.3621 30.1491C50.4275 30.2202 50.5059 30.3023 50.5998 30.392L54.4686 26.3432C54.4757 26.35 54.4813 26.3557 54.4848 26.3593C54.4881 26.3626 54.4881 26.3628 54.4835 26.3577L50.3621 30.1491ZM45.8129 25.204L50.3621 30.1491L54.4835 26.3577L49.9342 21.4126L45.8129 25.204ZM48.145 25.3703C47.4787 25.9224 46.4527 25.8995 45.8129 25.204L49.9342 21.4126C48.5026 19.8564 46.1389 19.76 44.5722 21.0581L48.145 25.3703ZM31.9942 35.0318C39.0398 32.633 45.8995 27.2308 48.145 25.3703L44.5722 21.0581C42.3657 22.8862 36.1842 27.6895 30.1893 29.7307L31.9942 35.0318Z" fill="#1300EE" mask="url(#path-17-outside-2_1_416)"/>
</g>
<path d="M96.4565 32.1315C96.4704 32.0896 96.5296 32.0896 96.5435 32.1315L96.74 32.7251C97.3129 34.456 98.4431 35.9484 99.954 36.9689C99.976 36.9838 99.976 37.0162 99.954 37.0311C98.4431 38.0516 97.3129 39.544 96.74 41.2749L96.5435 41.8685C96.5296 41.9104 96.4704 41.9104 96.4565 41.8685L96.26 41.2749C95.6871 39.544 94.5569 38.0516 93.046 37.0311C93.024 37.0162 93.024 36.9838 93.046 36.9689C94.5569 35.9484 95.6871 34.456 96.26 32.7251L96.4565 32.1315Z" fill="#D8FFE8"/>
<path d="M97.8726 31.6916L98.0691 32.2852C98.5447 33.7224 99.4831 34.9614 100.738 35.8088M97.8726 31.6916L100.738 35.8088M97.8726 31.6916C97.8726 31.6916 97.8726 31.6916 97.8726 31.6916C97.435 30.3695 95.5649 30.3695 95.1274 31.6916C95.1274 31.6916 95.1274 31.6916 95.1274 31.6916L94.9309 32.2852C94.4553 33.7224 93.5169 34.9614 92.2624 35.8088M97.8726 31.6916L92.2624 35.8088M100.738 35.8088C101.581 36.3788 101.581 37.6212 100.738 38.1912M100.738 35.8088L100.738 38.1912M100.738 38.1912C99.4831 39.0386 98.5447 40.2776 98.0691 41.7148L97.8726 42.3084C97.4351 43.6305 95.5649 43.6305 95.1274 42.3084L94.9309 41.7148C94.4553 40.2776 93.5169 39.0386 92.2624 38.1912M100.738 38.1912L92.2624 35.8088M92.2624 38.1912L93.0443 37.0337M92.2624 38.1912L93.0443 37.0337M92.2624 38.1912C91.4185 37.6212 91.4185 36.3788 92.2624 35.8088M93.0443 37.0337L93.046 37.0311L93.0443 37.0337ZM99.17 35.8712C99.1701 35.8711 99.1703 35.871 99.1704 35.8709L99.17 35.8712ZM99.1704 38.1291C99.1696 38.1286 99.1688 38.128 99.168 38.1275L99.1704 38.1291Z" stroke="#1300EE" stroke-width="2.8"/>
<mask id="mask0_1_416" style="mask-type:alpha" maskUnits="userSpaceOnUse" x="10" y="9" width="78" height="79">
<path fill-rule="evenodd" clip-rule="evenodd" d="M80.4447 42.8141C80.8093 41.0924 81 39.3161 81 37.5C81 21.7599 66.6731 9 49 9C31.3269 9 17 21.7599 17 37.5C17 39.3161 17.1907 41.0924 17.5553 42.8141C17.6515 46.5784 15.5688 49.953 14.358 51.915L14.3578 51.9153C14.2271 52.1271 14.1066 52.3224 14 52.5C12.5 55 10.5 58.5 10 62.5C10 66 11.4 69.7 13 72.5C14.3407 74.8461 13.2006 78.5262 12.1094 80.8342L12.0678 80.9221C11.7073 81.6838 11.3413 82.4568 11.2866 83.2966C11.1647 85.1705 11.8117 87.5 15 87.5H25H36.5C42.0228 87.5 46.5 83.0229 46.5 77.5V76.0515C35.5269 74.8103 27 65.497 27 54.192V50.4359V40.2408V37.3105C27 36.2765 27.4943 35.3035 28.3555 34.7312C29.5684 33.9254 31.3388 32.8229 32.5632 32.3813C38.6539 30.185 44.7449 25.1673 46.9094 23.2745C47.3676 22.8739 48.0675 22.9155 48.4666 23.375L52.703 28.2521C52.7384 28.2929 52.7727 28.3306 52.8106 28.369C53.2538 28.8173 56.3478 31.8663 60.2683 33.6791C62.7626 34.8325 65.5432 35.3239 67.6489 35.5295C69.4714 35.7074 71 37.1905 71 39.0217V40.2408V49.3415V54.192C71 65.497 62.4731 74.8103 51.5 76.0515V77.5C51.5 83.0229 55.9772 87.5 61.5 87.5H73H83C86.1883 87.5 86.8353 85.1705 86.7134 83.2966C86.6587 82.4568 86.2928 81.6838 85.9322 80.9222L85.9322 80.9221L85.8906 80.8342C84.7994 78.5262 83.6593 74.8461 85 72.5C86.6 69.7 88 66 88 62.5C87.5 58.5 85.5 55 84 52.5C83.8934 52.3224 83.7728 52.127 83.6421 51.9151L83.642 51.915C82.4312 49.953 80.3485 46.5784 80.4447 42.8141Z" fill="#8667FF"/>
</mask>
<g mask="url(#mask0_1_416)">
<g style="mix-blend-mode:soft-light">
<path d="M70.8921 20.3345C66.413 13.7145 60.8464 10.8629 58 10.2299C70.7729 5.00326 85.0821 13.046 87.2571 26.6744L90.3882 46.2932C90.795 48.8417 90.9332 51.4258 90.8006 54.0031L89.5395 78.5139C89.2372 84.3904 84.3843 89 78.5 89C79.6667 88.1475 82 85.8287 82 83.3736C82 80.3046 80 77.2356 80 74.1667C80 71.0977 83.5 68.0287 83 62.4023C82.5 56.7759 79.5 55.7529 77.5 50.1264C76.5869 47.5576 75.956 42.6453 75.5517 37.9187C75.0267 31.7814 74.3438 25.4361 70.8921 20.3345Z" fill="#1300EE"/>
</g>
</g>
<path d="M81.0162 88.1739L77.4131 95.5008C77.2449 95.8428 76.8969 96.0595 76.5158 96.0595L67 96.0595L72.4073 84.6094C72.6325 84.1325 73.1894 83.9125 73.6798 84.1067L80.4871 86.8028C81.0298 87.0178 81.2738 87.65 81.0162 88.1739Z" fill="#23008A"/>
<path d="M78.1232 95.9071L82.0094 87.9088C82.2562 87.4009 82.0337 86.7895 81.5182 86.5589L73.926 83.1638C73.4368 82.945 72.8621 83.1507 72.6229 83.6303L66.4999 95.9071" stroke="#1300EE" stroke-width="2.8" stroke-linecap="round"/>
<path d="M81.4412 84.1459L80.2699 86.5321L74.4048 83.9625L75.5325 80.9873C75.6068 80.7912 75.6169 80.5765 75.5654 80.3732C74.6219 76.6524 74.8071 73.6357 75.0252 72.57C75.2924 71.6357 76.0202 69.7152 76.7929 69.5081C77.5657 69.3011 78.0178 70.2152 78.1473 70.6982L78.6435 72.5499C78.7066 72.7856 79.0098 72.8513 79.1649 72.6629L84.1323 66.6287C84.2177 66.525 84.3235 66.4395 84.4423 66.3768C85.4886 65.8253 85.9211 65.5646 86.7291 66.0208C87.638 66.534 87.6452 67.6811 87.4773 68.5966C87.462 68.6803 87.4339 68.761 87.3963 68.8375L85.4844 72.7256C85.2673 73.1669 85.4117 73.6934 85.7686 74.0318C87.633 75.7996 87.4917 78.1284 87.1434 79.158C85.9641 81.7098 83.4951 83.0983 82.0739 83.6023C81.8019 83.6988 81.5684 83.8868 81.4412 84.1459Z" fill="#FFE6EE"/>
<path d="M81.4412 84.1459L80.2699 86.5321L74.4048 83.9625L75.5325 80.9873C75.6068 80.7912 75.6169 80.5765 75.5654 80.3732C74.6219 76.6524 74.8071 73.6357 75.0252 72.57C75.2924 71.6357 76.0202 69.7152 76.7929 69.5081C77.5657 69.3011 78.0178 70.2152 78.1473 70.6982L78.6435 72.5499C78.7066 72.7856 79.0098 72.8513 79.1649 72.6629L84.1323 66.6287C84.2177 66.525 84.3235 66.4395 84.4423 66.3768C85.4886 65.8253 85.9211 65.5646 86.7291 66.0208C87.638 66.534 87.6452 67.6811 87.4773 68.5966C87.462 68.6803 87.4339 68.761 87.3963 68.8375L85.4844 72.7256C85.2673 73.1669 85.4117 73.6934 85.7686 74.0318C87.633 75.7996 87.4917 78.1284 87.1434 79.158C85.9641 81.7098 83.4951 83.0983 82.0739 83.6023C81.8019 83.6988 81.5684 83.8868 81.4412 84.1459Z" stroke="#1300EE" stroke-width="2.8" stroke-linecap="round" stroke-linejoin="round"/>
<path d="M89.4531 46.1262C89.4693 46.0827 89.5307 46.0827 89.5469 46.1262L89.9248 47.1436C90.7929 49.4802 92.4288 51.4528 94.5646 52.738L94.9288 52.9572C94.9611 52.9766 94.9611 53.0234 94.9288 53.0428L94.5646 53.262C92.4288 54.5472 90.7929 56.5198 89.9248 58.8564L89.5469 59.8738C89.5307 59.9173 89.4693 59.9173 89.4531 59.8738L89.0752 58.8564C88.2071 56.5198 86.5712 54.5472 84.4354 53.262L84.0712 53.0428C84.0389 53.0234 84.0389 52.9766 84.0712 52.9572L84.4354 52.738C86.5712 51.4528 88.2071 49.4802 89.0752 47.1436L89.4531 46.1262Z" fill="#D8FFE8"/>
<path d="M90.8592 60.3614L90.8592 60.3614L91.2372 59.344C91.9948 57.3047 93.4225 55.5832 95.2865 54.4615L95.6506 54.2424C95.6506 54.2424 95.6506 54.2424 95.6507 54.2424C96.5872 53.6789 96.5872 52.3211 95.6507 51.7576C95.6506 51.7576 95.6506 51.7576 95.6506 51.7576L95.2865 51.5385C93.4225 50.4168 91.9948 48.6953 91.2372 46.656L90.8592 45.6386C90.8592 45.6386 90.8592 45.6386 90.8592 45.6386C90.3911 44.3785 88.6089 44.3786 88.1408 45.6386C88.1408 45.6386 88.1408 45.6386 88.1408 45.6386L87.7628 46.656C87.0052 48.6953 85.5775 50.4168 83.7135 51.5385L83.3494 51.7576C83.3493 51.7576 83.3493 51.7576 83.3493 51.7576C82.4128 52.3212 82.4129 53.6789 83.3493 54.2424L83.7135 54.4615L84.345 53.4122L83.7135 54.4615C85.5775 55.5832 87.0052 57.3047 87.7628 59.344L88.1408 60.3614C88.6089 61.6215 90.3911 61.6214 90.8592 60.3614Z" stroke="#1300EE" stroke-width="2.8"/>
<defs>
<clipPath id="clip0_1_416">
<rect width="78" height="33" fill="white" transform="translate(10 9)"/>
</clipPath>
</defs>
</svg>
